HIERARCHY
ROOT Hips
{
	OFFSET 0.000000 0.000000 0.000000
	CHANNELS 6 Xposition Yposition Zposition Zrotation Yrotation Xrotation 
	JOINT LHipJoint
	{
		OFFSET 0.000000 0.000000 0.000000
		CHANNELS 3 Zrotation Yrotation Xrotation
		JOINT LeftUpLeg
		{
			OFFSET 1.363060 -1.794630 0.839290
			CHANNELS 3 Zrotation Yrotation Xrotation
			JOINT LeftLeg
			{
				OFFSET 2.448110 -6.726130 0.000000
				CHANNELS 3 Zrotation Yrotation Xrotation
				JOINT LeftFoot
				{
					OFFSET 2.562200 -7.039590 0.000000
					CHANNELS 3 Zrotation Yrotation Xrotation
					JOINT LeftToeBase
					{
						OFFSET 0.157640 -0.433110 2.322550
						CHANNELS 3 Zrotation Yrotation Xrotation
						End Site
						{
							OFFSET 0.000000 0.000000 0.000000
						}
					}
				}
			}
		}
	}
	JOINT RHipJoint
	{
		OFFSET 0.000000 0.000000 0.000000
		CHANNELS 3 Zrotation Yrotation Xrotation
		JOINT RightUpLeg
		{
			OFFSET -1.305520 -1.794630 0.839290
			CHANNELS 3 Zrotation Yrotation Xrotation
			JOINT RightLeg
			{
				OFFSET -2.542530 -6.985550 0.000000
				CHANNELS 3 Zrotation Yrotation Xrotation
				JOINT RightFoot
				{
					OFFSET -2.568260 -7.056230 0.000000
					CHANNELS 3 Zrotation Yrotation Xrotation
					JOINT RightToeBase
					{
						OFFSET -0.164730 -0.452590 2.363150
						CHANNELS 3 Zrotation Yrotation Xrotation
						End Site
						{
							OFFSET 0.000000 0.000000 0.000000
						}
					}
				}
			}
		}
	}
	JOINT LowerBack
	{
		OFFSET 0.000000 0.000000 0.000000
		CHANNELS 3 Zrotation Yrotation Xrotation
		JOINT Spine
		{
			OFFSET 0.028270 2.035590 -0.193380
			CHANNELS 3 Zrotation Yrotation Xrotation
			JOINT Spine1
			{
				OFFSET 0.056720 2.048850 -0.042750
				CHANNELS 3 Zrotation Yrotation Xrotation
				JOINT Neck
				{
					OFFSET 0.000000 0.000000 0.000000
					CHANNELS 3 Zrotation Yrotation Xrotation
					JOINT Neck1
					{
						OFFSET -0.054170 1.746240 0.172020
						CHANNELS 3 Zrotation Yrotation Xrotation
						JOINT Head
						{
							OFFSET 0.104070 1.761360 -0.123970
							CHANNELS 3 Zrotation Yrotation Xrotation
							End Site
							{
								OFFSET 0.000000 0.000000 0.000000
							}
						}
					}
				}
				JOINT LeftShoulder
				{
					OFFSET 0.000000 0.000000 0.000000
					CHANNELS 3 Zrotation Yrotation Xrotation
					JOINT LeftArm
					{
						OFFSET 3.362410 1.200890 -0.311210
						CHANNELS 3 Zrotation Yrotation Xrotation
						JOINT LeftForeArm
						{
							OFFSET 4.983000 -0.000000 -0.000000
							CHANNELS 3 Zrotation Yrotation Xrotation
							JOINT LeftHand
							{
								OFFSET 3.483560 -0.000000 -0.000000
								CHANNELS 3 Zrotation Yrotation Xrotation
								JOINT LeftFingerBase
								{
									OFFSET 0.000000 0.000000 0.000000
									CHANNELS 3 Zrotation Yrotation Xrotation
									JOINT LeftHandIndex1
									{
										OFFSET 0.715260 -0.000000 -0.000000
										CHANNELS 3 Zrotation Yrotation Xrotation
										End Site
										{
											OFFSET 0.000000 0.000000 0.000000
										}
									}
								}
								JOINT LThumb
								{
									OFFSET 0.000000 0.000000 0.000000
									CHANNELS 3 Zrotation Yrotation Xrotation
									End Site
									{
										OFFSET 0.000000 0.000000 0.000000
									}
								}
							}
						}
					}
				}
				JOINT RightShoulder
				{
					OFFSET 0.000000 0.000000 0.000000
					CHANNELS 3 Zrotation Yrotation Xrotation
					JOINT RightArm
					{
						OFFSET -3.136600 1.374050 -0.404650
						CHANNELS 3 Zrotation Yrotation Xrotation
						JOINT RightForeArm
						{
							OFFSET -5.241900 -0.000000 -0.000000
							CHANNELS 3 Zrotation Yrotation Xrotation
							JOINT RightHand
							{
								OFFSET -3.444170 -0.000000 -0.000000
								CHANNELS 3 Zrotation Yrotation Xrotation
								JOINT RightFingerBase
								{
									OFFSET 0.000000 0.000000 0.000000
									CHANNELS 3 Zrotation Yrotation Xrotation
									JOINT RightHandIndex1
									{
										OFFSET -0.622530 -0.000000 -0.000000
										CHANNELS 3 Zrotation Yrotation Xrotation
										End Site
										{
											OFFSET 0.000000 0.000000 0.000000
										}
									}
								}
								JOINT RThumb
								{
									OFFSET 0.000000 0.000000 0.000000
									CHANNELS 3 Zrotation Yrotation Xrotation
									End Site
									{
										OFFSET 0.000000 0.000000 0.000000
									}
								}
							}
						}
					}
				}
			}
		}
	}
}
MOTION
Frames: 6
Frame Time: 0.008333
-10.651441 17.587802 -27.601628 0.095094 -5.825569 4.647118 0.341051 2.007630 2.414763 -21.134055 1.610556 1.090091 11.149478 16.770596 62.873625 2.523207 1.203698 35.054063 0.024200 -1.005300 -2.763300 -1.590977 -1.456802 0.217333 13.207853 15.332365 -28.184957 -3.876105 -13.399012 39.276264 0.240109 -3.496469 5.443496 -0.371600 3.915600 -10.839400 -3.373557 0.727810 10.254022 1.263912 0.572672 -1.906747 5.331982 0.363301 -3.532670 -7.995295 -1.635398 -14.418421 5.252376 -0.713982 6.030796 3.778100 -0.406000 7.116400 -2.702953 2.669294 -2.472768 -83.171385 11.017809 32.431979 96.596488 -64.052524 -73.089466 -0.028205 -1.610658 -27.785853 15.718811 7.184733 2.540700 -7.125000 0.000000 0.000000 -8.974500 38.809300 1.381800 0.595429 -2.060346 -1.679092 80.789334 -18.870271 37.567046 -118.595715 58.482357 -88.992594 1.155893 -0.880383 -20.094341 -4.079729 22.866009 -1.984100 7.125000 0.000000 0.000000 15.009000 -6.504700 13.702600 
-10.611908 17.578152 -27.162820 -0.898470 -0.378811 3.930632 0.542541 2.031910 2.278596 -19.091004 -2.985670 0.696530 12.170200 17.361612 66.867365 1.972459 -1.251157 29.333857 1.733100 -8.286600 -23.588000 -1.592000 -1.596951 0.403986 15.148993 10.377754 -26.364762 -4.117869 -13.459617 39.993896 0.827451 -5.376564 2.435599 -0.466300 4.380000 -12.148400 -0.796900 -1.083742 11.176929 1.475926 -1.484115 -1.911820 4.574490 -0.648089 -3.725661 -8.022572 -1.651444 -14.212717 5.054936 -0.737298 6.012621 3.734300 -0.437900 7.068600 -2.780292 2.682860 -2.485026 -83.844305 11.456430 32.081246 93.471339 -63.940037 -70.973695 0.028461 -1.697551 -27.923035 16.021196 7.733665 2.783500 -7.125000 0.000000 0.000000 -8.831500 39.502900 1.207400 0.606008 -2.006981 -1.658772 80.026339 -17.238205 37.988692 -117.362918 58.800270 -88.125942 1.147718 -0.880076 -20.239493 -3.621229 22.796238 -1.786900 7.125000 0.000000 0.000000 15.292900 -6.608500 13.950200 
-10.671675 17.493483 -26.823935 -2.133271 -6.312991 5.354545 0.594074 1.964890 2.064179 -17.683570 2.855095 -4.408441 13.281367 17.822788 70.530848 2.037585 -2.932066 27.798120 1.912100 -8.680600 -24.801300 -1.665417 -1.568162 0.399847 16.650715 15.282896 -26.107465 -4.130757 -13.443117 40.054317 0.877212 -5.500090 2.003280 -0.704300 5.364100 -14.950100 -1.569635 1.335794 10.179311 1.484444 1.604651 -1.953308 5.156936 0.912111 -3.839688 -7.901595 -1.720391 -14.149376 4.903953 -0.854707 5.835859 3.586600 -0.503600 6.994000 -2.699759 2.618286 -2.542827 -84.302922 11.899588 32.032125 90.886033 -63.721686 -69.128662 0.067043 -1.774658 -28.114404 16.424688 8.286823 3.050600 -7.125000 0.000000 0.000000 -8.588800 40.194000 1.026300 0.775495 -1.990229 -1.706024 79.506416 -15.518051 38.256708 -116.119614 59.110223 -87.281996 1.203297 -0.833827 -19.731201 -4.307205 22.730286 -2.091000 7.125000 0.000000 0.000000 14.831700 -6.646200 13.486800 
-10.604749 17.526998 -26.371949 -2.354470 0.536970 4.164241 0.721700 1.941713 1.990721 -16.419444 -2.990322 -4.212399 14.294263 18.250950 73.402858 2.214279 -2.366456 30.212879 0.576700 -4.862900 -13.518100 -1.601840 -1.709210 0.600328 17.536485 8.943147 -23.860231 -4.191104 -13.303194 40.108231 1.323079 -6.951766 -0.877280 -0.786500 5.661400 -15.805200 0.558219 -0.890655 11.368709 1.682251 -1.038792 -1.959739 4.546964 -0.389017 -4.085990 -7.743314 -1.673365 -14.024300 4.482485 -0.835408 5.860872 3.383500 -0.528800 6.974700 -2.756336 2.618671 -2.554217 -85.041253 12.625646 31.912651 88.901191 -63.517981 -67.729314 0.106445 -1.819161 -28.575445 16.479767 8.406705 3.113800 -7.125000 0.000000 0.000000 -8.571800 40.376900 0.985300 0.779985 -1.948963 -1.685944 78.589922 -13.777255 38.641044 -115.020180 59.355264 -86.498802 1.239465 -0.813908 -18.815209 -5.003080 22.746065 -2.398300 7.125000 0.000000 0.000000 14.373800 -6.592600 13.056600 
-10.593646 17.511641 -25.979730 -2.616079 1.226473 4.230302 0.798209 1.866559 1.843252 -15.697672 -3.241463 -6.653195 15.345913 18.609125 76.164451 2.522075 -1.310540 33.287941 0.084800 1.878400 5.169800 -1.596181 -1.760340 0.687357 18.030850 8.218179 -22.467695 -4.184673 -13.191336 40.031424 1.414573 -7.258070 -2.487578 -0.885200 5.997400 -16.776900 0.775122 -0.854328 11.316347 1.753237 -0.966848 -1.924438 4.648165 -0.346010 -3.911981 -7.654850 -1.628646 -14.329012 4.261930 -0.779180 6.080681 3.254400 -0.526300 7.126300 -2.733197 2.610112 -2.578526 -85.608363 13.037004 31.933356 87.591935 -63.356439 -66.770616 0.125348 -1.841370 -29.346921 16.551416 8.303044 3.104600 -7.125000 0.000000 0.000000 -8.479700 40.296600 0.991400 0.842911 -1.949186 -1.705015 77.815546 -11.901167 38.939864 -114.505648 59.483066 -86.139379 1.232725 -0.835143 -18.039321 -4.854128 22.840194 -2.347800 7.125000 0.000000 0.000000 14.462500 -6.508000 13.167200 
-10.575177 17.510811 -25.591558 -2.470331 1.476025 4.468018 0.867776 1.762891 1.686217 -15.615064 -3.089621 -9.326583 16.269033 18.900503 78.538874 2.849250 -0.337840 35.917640 1.323800 7.286700 20.567700 -1.573438 -1.795674 0.755108 17.928862 7.898408 -21.159065 -4.097250 -13.015828 39.655181 1.372838 -7.130959 -3.484688 -0.962900 6.248100 -17.505900 0.526181 -0.606354 11.069140 1.757173 -0.693790 -1.853485 4.721387 -0.205252 -3.544952 -7.359927 -1.564832 -14.688347 3.943032 -0.746715 6.026408 3.028300 -0.521800 7.143400 -2.690533 2.608705 -2.573127 -86.124517 13.189618 32.063557 86.980659 -63.276324 -66.314744 0.164156 -1.842645 -30.149612 16.366574 8.419174 3.105500 -7.125000 0.000000 0.000000 -8.671100 40.408600 0.990100 0.886240 -1.978662 -1.711841 77.240475 -10.266117 39.239522 -114.726479 59.451214 -86.289593 1.225049 -0.845475 -17.494598 -4.967469 22.851173 -2.395400 7.125000 0.000000 0.000000 14.393300 -6.489200 13.105200 
